<svg width="318" height="274" viewBox="0 0 318 274" fill="none" xmlns="http://www.w3.org/2000/svg">
<path fill-rule="evenodd" clip-rule="evenodd" d="M364.648 162.906C395.157 132.405 436.696 77.1187 445.502 49.5028C458.911 7.45042 441.609 -19.9207 405.769 -40.0354C338.52 -77.7777 230.567 -45.0721 192.492 -6.99729C156.929 28.5662 146.593 54.5348 155.509 90.0478C164.425 125.561 170.285 150.747 156.694 184.756C143.304 218.261 150.039 237.764 170.361 244.844C192.34 252.501 222.67 251.186 259.022 235.983C296.108 220.473 334.147 193.399 364.648 162.906Z" fill="#FAE8FF"/>
<path fill-rule="evenodd" clip-rule="evenodd" d="M364.648 119.906C395.156 89.4046 436.696 34.1187 445.502 6.50277C458.911 -35.5496 441.609 -62.9207 405.769 -83.0353C338.52 -120.778 230.567 -88.0721 192.492 -49.9973C156.929 -14.4338 146.593 11.5348 155.509 47.0478C164.425 82.5608 170.285 107.747 156.694 141.756C143.304 175.261 150.039 194.764 170.361 201.844C192.34 209.501 222.669 208.186 259.021 192.983C296.108 177.473 334.147 150.399 364.648 119.906Z" stroke="#C026D3"/>
</svg>
