<svg width="270" height="270" viewBox="0 0 270 270" fill="none" xmlns="http://www.w3.org/2000/svg">
<path fill-rule="evenodd" clip-rule="evenodd" d="M-37.6708 136.37C-1.44421 163.811 5.0168 88.0671 41.3375 107.715C143.128 162.779 119.667 56.7854 176.287 90.2689C264.696 142.552 128.299 354.619 96.3724 363.174C66.5514 371.164 45.1998 365.034 16.6254 339.006C-11.9489 312.979 -32.2265 294.874 -60.191 286.887C-87.7407 279.019 -124.71 263.863 -140.46 205.082C-146.077 184.119 -159.202 97.2001 -132.933 81.429C-112.067 68.9016 -60.7864 118.86 -37.6708 136.37Z" fill="#FAE8FF"/>
<path fill-rule="evenodd" clip-rule="evenodd" d="M-22.6708 163.441C13.5558 190.882 20.0168 115.138 56.3375 134.786C158.128 189.85 134.667 83.8564 191.287 117.34C279.696 169.623 143.299 381.69 111.372 390.245C81.5514 398.235 60.1998 392.105 31.6254 366.077C3.05111 340.05 -17.2265 321.945 -45.191 313.958C-72.7407 306.09 -109.71 290.934 -125.46 232.153C-131.077 211.19 -144.202 124.271 -117.933 108.5C-97.0671 95.9727 -45.7864 145.931 -22.6708 163.441Z" stroke="#C026D3"/>
</svg>
